<svg xmlns="http://www.w3.org/2000/svg" version="1.1" xmlns:xlink="http://www.w3.org/1999/xlink" xmlns:svgjs="http://svgjs.dev/svgjs" width="2000" height="1500" viewBox="0 0 2000 1500"><rect width="2000" height="1500" fill="#efe9dd"></rect><g transform="matrix(0.75,0,0,0.75,249.090909090909,600.4747848376567)"><svg viewBox="0 0 396 79" data-background-color="#efe9dd" preserveAspectRatio="xMidYMid meet" height="398" width="2000" xmlns="http://www.w3.org/2000/svg" xmlns:xlink="http://www.w3.org/1999/xlink"><g id="tight-bounds" transform="matrix(1,0,0,1,0.2400000000000091,0.07283751365201852)"><svg viewBox="0 0 395.52 78.85415505282819" height="78.85415505282819" width="395.52"><g><svg viewBox="0 0 525.4083401810334 104.74977427863145" height="78.85415505282819" width="395.52"><g transform="matrix(1,0,0,1,129.8883401810334,12.258851178490694)"><svg viewBox="0 0 395.52 80.23207192165006" height="80.23207192165006" width="395.52"><g id="textblocktransform"><svg viewBox="0 0 395.52 80.23207192165006" height="80.23207192165006" width="395.52" id="textblock"><g><rect width="75.54432" height="4.801466087358775" y="70.62120820440208" fill="#8a2851" data-fill-palette-color="tertiary"></rect><rect width="75.54432" height="4.801466087358775" y="70.62120820440208" x="319.97568" fill="#8a2851" data-fill-palette-color="tertiary"></rect></g><g><svg viewBox="0 0 395.52 53.2425276233119" height="53.2425276233119" width="395.52"><g transform="matrix(1,0,0,1,0,0)"><svg width="395.52" viewBox="3.98 -39.5 338.03999999999996 45.51" height="53.2425276233119" data-palette-color="#8a2851"><path d="M13.67-15.33L13.67 0 3.98 0 3.98-35.16 13.67-35.16 13.67-19.8 26.51-19.8 26.51-35.16 36.21-35.16 36.21 0 26.51 0 26.51-15.33 13.67-15.33ZM71.51-28.2L71.51 0 63.25 0 63.25-3.37Q61.79-1.37 59.73-0.4 57.66 0.56 55.2 0.56L55.2 0.56Q51.98 0.56 49.44-0.59 46.9-1.73 45.14-3.72 43.38-5.71 42.45-8.4 41.53-11.08 41.53-14.16L41.53-14.16Q41.53-17.24 42.45-19.92 43.38-22.61 45.14-24.6 46.9-26.59 49.44-27.73 51.98-28.88 55.2-28.88L55.2-28.88Q56.83-28.88 58.31-28.39 59.79-27.91 61.02-27.01 62.25-26.12 63.19-24.87 64.13-23.61 64.67-22.07L64.67-22.07 68.33-28.2 71.51-28.2ZM63.21-14.16L63.21-14.16Q63.21-15.26 63.1-16.48 62.99-17.7 62.72-18.9 62.45-20.09 61.97-21.18 61.5-22.27 60.75-23.11 60.01-23.95 58.96-24.44 57.91-24.93 56.52-24.93L56.52-24.93Q55.12-24.93 54.1-24.43 53.07-23.93 52.34-23.08 51.61-22.24 51.13-21.14 50.66-20.04 50.39-18.85 50.12-17.65 50.01-16.44 49.9-15.23 49.9-14.16L49.9-14.16Q49.9-13.09 50.01-11.87 50.12-10.64 50.39-9.45 50.66-8.25 51.13-7.15 51.61-6.05 52.34-5.21 53.07-4.37 54.1-3.87 55.12-3.37 56.52-3.37L56.52-3.37Q57.79-3.37 58.77-3.89 59.76-4.42 60.51-5.3 61.25-6.18 61.77-7.3 62.28-8.42 62.6-9.62 62.91-10.82 63.06-12 63.21-13.18 63.21-14.16ZM122.02-16.46L122.02-16.46Q122.02-13.55 121.33-10.4 120.65-7.25 119.42-4.26 118.18-1.27 116.45 1.39 114.72 4.05 112.59 6.01L112.59 6.01 109.49 4.32Q110.2 3.05 110.79 1.46 111.37-0.12 111.86-1.88 112.35-3.64 112.71-5.49 113.08-7.35 113.34-9.19 113.59-11.04 113.72-12.77 113.84-14.5 113.84-16.02L113.84-16.02Q113.84-16.87 113.79-17.87 113.74-18.87 113.58-19.87 113.42-20.87 113.11-21.79 112.79-22.71 112.24-23.43 111.69-24.15 110.87-24.57 110.05-25 108.91-25L108.91-25Q107.78-25 106.99-24.4 106.2-23.8 105.63-22.85 105.07-21.9 104.74-20.7 104.41-19.51 104.24-18.3 104.07-17.09 104.01-15.99 103.95-14.89 103.95-14.14L103.95-14.14 103.95 0 95.72 0 95.72-13.13Q95.72-13.99 95.75-15.2 95.77-16.41 95.69-17.72 95.6-19.04 95.37-20.35 95.14-21.66 94.64-22.68 94.14-23.71 93.28-24.35 92.43-25 91.13-25L91.13-25Q90.03-25 89.29-24.39 88.54-23.78 88.04-22.81 87.54-21.85 87.26-20.64 86.98-19.43 86.85-18.23 86.71-17.02 86.69-15.93 86.66-14.84 86.66-14.14L86.66-14.14 86.66 0 78.39 0 78.39-28.2 81.56-28.2 84.59-21.63Q85.62-25.05 87.82-26.97 90.03-28.88 93.7-28.88L93.7-28.88Q96.99-28.88 99.16-27.51 101.34-26.15 102.58-23.07L102.58-23.07Q103.29-24.41 104.16-25.49 105.02-26.56 106.09-27.32 107.15-28.08 108.44-28.48 109.74-28.88 111.3-28.88L111.3-28.88Q114.18-28.88 116.22-27.94 118.26-27 119.55-25.34 120.84-23.68 121.43-21.4 122.02-19.12 122.02-16.46ZM151.48-25.71L151.48-25.71 146.84-18.02Q146.55-18.99 146.09-20.21 145.62-21.44 144.94-22.5 144.26-23.56 143.3-24.28 142.35-25 141.11-25L141.11-25Q139.96-25 139.12-24.41 138.27-23.83 137.69-22.89 137.1-21.95 136.72-20.76 136.35-19.58 136.14-18.37 135.93-17.16 135.86-16.05 135.78-14.94 135.78-14.14L135.78-14.14 135.78 0 127.51 0 127.51-28.2 130.68-28.2 134.03-21.63Q134.71-23.22 135.59-24.55 136.47-25.88 137.61-26.84 138.76-27.81 140.21-28.34 141.67-28.88 143.5-28.88L143.5-28.88Q144.45-28.88 145.62-28.72 146.79-28.56 147.92-28.19 149.04-27.81 149.99-27.2 150.94-26.59 151.48-25.71ZM183.97-14.16L183.97-14.16Q183.97-11.96 183.39-10.03 182.8-8.11 181.76-6.47 180.73-4.83 179.26-3.53 177.8-2.22 176.05-1.32 174.31-0.42 172.32 0.07 170.33 0.56 168.23 0.56L168.23 0.56Q166.13 0.56 164.15 0.07 162.17-0.42 160.43-1.32 158.68-2.22 157.22-3.53 155.75-4.83 154.71-6.47 153.68-8.11 153.09-10.05 152.5-11.99 152.5-14.16L152.5-14.16Q152.5-16.33 153.09-18.27 153.68-20.21 154.71-21.85 155.75-23.49 157.22-24.79 158.68-26.1 160.43-27 162.17-27.91 164.15-28.39 166.13-28.88 168.23-28.88L168.23-28.88Q170.33-28.88 172.32-28.39 174.31-27.91 176.05-27 177.8-26.1 179.26-24.79 180.73-23.49 181.76-21.85 182.8-20.21 183.39-18.27 183.97-16.33 183.97-14.16ZM175.58-14.16L175.58-14.16Q175.58-15.33 175.44-16.64 175.31-17.94 174.99-19.2 174.67-20.46 174.12-21.62 173.57-22.78 172.77-23.65 171.96-24.51 170.84-25.04 169.72-25.56 168.23-25.56L168.23-25.56Q166.81-25.56 165.71-25.02 164.61-24.49 163.8-23.6 162.98-22.71 162.43-21.53 161.88-20.36 161.54-19.1 161.2-17.85 161.05-16.56 160.9-15.28 160.9-14.16L160.9-14.16Q160.9-13.04 161.05-11.76 161.2-10.47 161.54-9.2 161.88-7.93 162.43-6.77 162.98-5.62 163.8-4.72 164.61-3.83 165.71-3.3 166.81-2.76 168.23-2.76L168.23-2.76Q169.69-2.76 170.82-3.28 171.94-3.81 172.76-4.69 173.57-5.57 174.11-6.71 174.65-7.86 174.98-9.13 175.31-10.4 175.44-11.69 175.58-12.99 175.58-14.16ZM213.56-13.75L213.56 0 203.87 0 203.87-35.16 213.56-35.16 213.56-18.41Q218.05-21.85 221.95-26.05 225.84-30.25 228.65-35.18L228.65-35.18 235.26-35.18Q232.68-30.76 229.33-26.93 225.99-23.1 222.06-19.82L222.06-19.82 236.09 0 225.99 0 215.41-14.94Q214.95-14.62 214.5-14.33 214.05-14.04 213.56-13.75L213.56-13.75ZM248.13-35.01L248.13-35.01Q248.13-34.08 247.77-33.25 247.42-32.42 246.81-31.81 246.2-31.2 245.37-30.85 244.54-30.49 243.61-30.49L243.61-30.49Q242.68-30.49 241.86-30.85 241.05-31.2 240.44-31.81 239.83-32.42 239.47-33.25 239.12-34.08 239.12-35.01L239.12-35.01Q239.12-35.94 239.47-36.76 239.83-37.57 240.44-38.18 241.05-38.79 241.86-39.15 242.68-39.5 243.61-39.5L243.61-39.5Q244.54-39.5 245.37-39.15 246.2-38.79 246.81-38.18 247.42-37.57 247.77-36.76 248.13-35.94 248.13-35.01ZM247.76-28.17L247.76 0 239.48 0 239.48-28.17 247.76-28.17ZM265.29-24.93L265.29 0 257.01 0 257.01-24.93 251.88-24.93 251.88-28.2 257.01-28.2 257.01-38.57 265.29-38.57 265.29-28.2 273.83-28.2 273.83-24.93 265.29-24.93ZM305.15-28.2L305.15 0 296.9 0 296.9-3.37Q295.44-1.37 293.37-0.4 291.31 0.56 288.84 0.56L288.84 0.56Q285.62 0.56 283.08-0.59 280.54-1.73 278.79-3.72 277.03-5.71 276.1-8.4 275.17-11.08 275.17-14.16L275.17-14.16Q275.17-17.24 276.1-19.92 277.03-22.61 278.79-24.6 280.54-26.59 283.08-27.73 285.62-28.88 288.84-28.88L288.84-28.88Q290.48-28.88 291.96-28.39 293.43-27.91 294.67-27.01 295.9-26.12 296.84-24.87 297.78-23.61 298.32-22.07L298.32-22.07 301.98-28.2 305.15-28.2ZM296.85-14.16L296.85-14.16Q296.85-15.26 296.74-16.48 296.63-17.7 296.36-18.9 296.1-20.09 295.62-21.18 295.14-22.27 294.4-23.11 293.65-23.95 292.6-24.44 291.55-24.93 290.16-24.93L290.16-24.93Q288.77-24.93 287.75-24.43 286.72-23.93 285.99-23.08 285.26-22.24 284.78-21.14 284.3-20.04 284.04-18.85 283.77-17.65 283.66-16.44 283.55-15.23 283.55-14.16L283.55-14.16Q283.55-13.09 283.66-11.87 283.77-10.64 284.04-9.45 284.3-8.25 284.78-7.15 285.26-6.05 285.99-5.21 286.72-4.37 287.75-3.87 288.77-3.37 290.16-3.37L290.16-3.37Q291.43-3.37 292.42-3.89 293.41-4.42 294.15-5.3 294.9-6.18 295.41-7.3 295.92-8.42 296.24-9.62 296.56-10.82 296.71-12 296.85-13.18 296.85-14.16ZM342.02-14.06L342.02-14.06Q342.02-10.99 341.09-8.3 340.16-5.62 338.4-3.63 336.64-1.64 334.11-0.49 331.57 0.66 328.34 0.66L328.34 0.66Q326.71 0.66 325.23 0.17 323.75-0.32 322.52-1.21 321.29-2.1 320.35-3.34 319.41-4.59 318.87-6.13L318.87-6.13 315.21 0 312.04 0 312.04-38.57 320.29-38.57 320.29-24.83Q321.75-26.86 323.82-27.81 325.88-28.76 328.34-28.76L328.34-28.76Q331.57-28.76 334.11-27.61 336.64-26.46 338.4-24.49 340.16-22.51 341.09-19.82 342.02-17.14 342.02-14.06ZM333.64-14.06L333.64-14.06Q333.64-15.14 333.53-16.35 333.42-17.55 333.15-18.75 332.89-19.95 332.41-21.04 331.93-22.14 331.2-22.99 330.47-23.83 329.44-24.33 328.42-24.83 327.03-24.83L327.03-24.83Q325.76-24.83 324.77-24.3 323.78-23.78 323.03-22.9 322.29-22.02 321.78-20.9 321.26-19.78 320.95-18.58 320.63-17.38 320.48-16.21 320.34-15.04 320.34-14.06L320.34-14.06Q320.34-12.96 320.45-11.74 320.56-10.52 320.82-9.31 321.09-8.11 321.57-7.02 322.05-5.93 322.79-5.09 323.53-4.25 324.57-3.76 325.61-3.27 327.03-3.27L327.03-3.27Q328.39-3.27 329.43-3.77 330.47-4.27 331.2-5.11 331.93-5.96 332.41-7.07 332.89-8.18 333.15-9.38 333.42-10.57 333.53-11.78 333.64-12.99 333.64-14.06Z" opacity="1" transform="matrix(1,0,0,1,0,0)" fill="#8a2851" class="wordmark-text-0" data-fill-palette-color="primary" id="text-0"></path></svg></g></svg></g><g transform="matrix(1,0,0,1,75.54432,65.81181057451288)"><svg viewBox="0 0 244.43135999999998 14.420261347137176" height="14.420261347137176" width="244.43135999999998"><g transform="matrix(1,0,0,1,8,0)"><svg width="228.43135999999998" viewBox="1.05 -37.5 791.97 50" height="14.420261347137176" data-palette-color="#8a2851"><path d="M1.05-34.05L1.05-35 16-35Q22.95-35 26.43-33.13 29.9-31.25 29.9-26.8L29.9-26.8Q29.9-19.95 21.65-18.6L21.65-18.6 21.65-18.5Q31.65-17.25 31.65-9.8L31.65-9.8Q31.65-4.35 27.55-2.18 23.45 0 15.75 0L15.75 0 1.05 0 1.05-0.95 4.3-0.95 4.3-34.05 1.05-34.05ZM15.2-17.7L14.05-17.7 14.05-0.95 16.4-0.95Q19.15-0.95 20.25-2.85 21.35-4.75 21.35-8.45L21.35-8.45 21.35-11.1Q21.35-14.4 20-16.05 18.65-17.7 15.2-17.7L15.2-17.7ZM15.65-34.05L14.05-34.05 14.05-18.65 15.35-18.65Q17.95-18.65 18.98-20.23 20-21.8 20-25.05L20-25.05 20-27.4Q20-31.1 19.1-32.58 18.2-34.05 15.65-34.05L15.65-34.05ZM49.6-9.85L49.6-9.85 49.6-14.1Q49.6-18.95 49.07-21.18 48.55-23.4 46.65-23.4L46.65-23.4Q45.55-23.4 44.87-22.78 44.2-22.15 43.9-20.7L43.9-20.7Q43.45-18.45 43.45-13.85L43.45-13.85 43.45-9.95Q43.45-4.5 43.77-3.4 44.1-2.3 44.45-1.6L44.45-1.6Q45-0.4 46.6-0.4L46.6-0.4Q48.55-0.4 49.15-2.65L49.15-2.65Q49.6-4.25 49.6-9.85ZM46.5 0.5Q40.25 0.5 37.05-2.7 33.85-5.9 33.85-11.88 33.85-17.85 37.27-21.08 40.7-24.3 46.9-24.3 53.1-24.3 56.15-21.33 59.2-18.35 59.2-12.25L59.2-12.25Q59.2 0.5 46.5 0.5L46.5 0.5ZM76.75-9.85L76.75-9.85 76.75-14.1Q76.75-18.95 76.22-21.18 75.7-23.4 73.8-23.4L73.8-23.4Q72.7-23.4 72.02-22.78 71.35-22.15 71.05-20.7L71.05-20.7Q70.6-18.45 70.6-13.85L70.6-13.85 70.6-9.95Q70.6-4.5 70.92-3.4 71.25-2.3 71.6-1.6L71.6-1.6Q72.15-0.4 73.75-0.4L73.75-0.4Q75.7-0.4 76.3-2.65L76.3-2.65Q76.75-4.25 76.75-9.85ZM73.65 0.5Q67.4 0.5 64.2-2.7 61-5.9 61-11.88 61-17.85 64.42-21.08 67.85-24.3 74.05-24.3 80.25-24.3 83.3-21.33 86.35-18.35 86.35-12.25L86.35-12.25Q86.35 0.5 73.65 0.5L73.65 0.5ZM117.99 0L104.09 0 104.09-0.9 106.39-0.9 100.74-12.5 99.79-12.25 99.79-0.9 102.09-0.9 102.09 0 87.74 0 87.74-0.9 90.49-0.9 90.49-36.6 87.54-36.6 87.54-37.5 99.79-37.5 99.79-13.25 100.59-13.55 111.84-22.9 107.14-22.9 107.14-23.8 116.99-23.8 116.99-22.9 113.49-22.9 107.54-17.85 116.19-0.9 117.99-0.9 117.99 0ZM140.29-34.2L147.09-18.55 154.19-34.2 149.14-34.2 149.14-35 158.99-35 158.99-34.2 155.69-34.2 148.14-17.5 148.14-0.95 151.19-0.95 151.19 0 135.34 0 135.34-0.95 138.39-0.95 138.39-16.55 129.89-34.2 127.54-34.2 127.54-35 143.54-35 143.54-34.2 140.29-34.2ZM171.19-9.85L171.19-9.85 171.19-14.1Q171.19-18.95 170.66-21.18 170.14-23.4 168.24-23.4L168.24-23.4Q167.14-23.4 166.46-22.78 165.79-22.15 165.49-20.7L165.49-20.7Q165.04-18.45 165.04-13.85L165.04-13.85 165.04-9.95Q165.04-4.5 165.36-3.4 165.69-2.3 166.04-1.6L166.04-1.6Q166.59-0.4 168.19-0.4L168.19-0.4Q170.14-0.4 170.74-2.65L170.74-2.65Q171.19-4.25 171.19-9.85ZM168.09 0.5Q161.84 0.5 158.64-2.7 155.44-5.9 155.44-11.88 155.44-17.85 158.86-21.08 162.29-24.3 168.49-24.3 174.69-24.3 177.74-21.33 180.79-18.35 180.79-12.25L180.79-12.25Q180.79 0.5 168.09 0.5L168.09 0.5ZM211.43-0.9L211.43 0 200.03 0 199.48-3.65Q198.68-1.65 197.11-0.58 195.53 0.5 192.43 0.5L192.43 0.5Q184.68 0.5 184.68-7.85L184.68-7.85 184.68-22.9 181.88-22.9 181.88-23.8 193.98-23.8 193.98-6.65Q193.98-3.65 194.41-2.7 194.83-1.75 196.11-1.75 197.38-1.75 198.38-3.3 199.38-4.85 199.38-7.6L199.38-7.6 199.38-22.9 197.08-22.9 197.08-23.8 208.68-23.8 208.68-0.9 211.43-0.9ZM229.13-22.4L229.13-22.4Q227.28-22.4 225.88-20 224.48-17.6 224.48-14.3L224.48-14.3 224.48-0.9 228.03-0.9 228.03 0 212.43 0 212.43-0.9 215.18-0.9 215.18-22.9 212.43-22.9 212.43-23.8 224.48-23.8 224.48-19Q225.13-21.55 226.98-22.93 228.83-24.3 231.18-24.3 233.53-24.3 235.01-22.98 236.48-21.65 236.48-19.23 236.48-16.8 235.38-15.5 234.28-14.2 232.01-14.2 229.73-14.2 228.66-15.7 227.58-17.2 228.38-19.85L228.38-19.85 230.18-19.85Q231.43-22.4 229.13-22.4ZM254.48-34.05L254.48-35 270.73-35 270.73-34.05 267.98-34.05 267.98-12.45Q267.98-5.7 264.93-2.63 261.88 0.45 255.78 0.45L255.78 0.45Q251.73 0.45 249.35-1.1 246.98-2.65 246.98-5.45L246.98-5.45Q246.98-7.6 248.18-8.83 249.38-10.05 251.45-10.05 253.53-10.05 254.55-9 255.58-7.95 255.58-6.48 255.58-5 255.03-3.5L255.03-3.5 253.08-3.5Q252.63-2.75 252.63-2.08 252.63-1.4 253.3-0.93 253.98-0.45 255.08-0.45L255.08-0.45Q257.08-0.45 257.65-2.02 258.23-3.6 258.23-8.85L258.23-8.85 258.23-34.05 254.48-34.05ZM287.47-9.85L287.47-9.85 287.47-14.1Q287.47-18.95 286.95-21.18 286.42-23.4 284.52-23.4L284.52-23.4Q283.42-23.4 282.75-22.78 282.07-22.15 281.77-20.7L281.77-20.7Q281.32-18.45 281.32-13.85L281.32-13.85 281.32-9.95Q281.32-4.5 281.65-3.4 281.97-2.3 282.32-1.6L282.32-1.6Q282.87-0.4 284.47-0.4L284.47-0.4Q286.42-0.4 287.02-2.65L287.02-2.65Q287.47-4.25 287.47-9.85ZM284.37 0.5Q278.12 0.5 274.92-2.7 271.72-5.9 271.72-11.88 271.72-17.85 275.15-21.08 278.57-24.3 284.77-24.3 290.97-24.3 294.02-21.33 297.07-18.35 297.07-12.25L297.07-12.25Q297.07 0.5 284.37 0.5L284.37 0.5ZM327.72-0.9L327.72 0 316.32 0 315.77-3.65Q314.97-1.65 313.4-0.58 311.82 0.5 308.72 0.5L308.72 0.5Q300.97 0.5 300.97-7.85L300.97-7.85 300.97-22.9 298.17-22.9 298.17-23.8 310.27-23.8 310.27-6.65Q310.27-3.65 310.7-2.7 311.12-1.75 312.4-1.75 313.67-1.75 314.67-3.3 315.67-4.85 315.67-7.6L315.67-7.6 315.67-22.9 313.37-22.9 313.37-23.8 324.97-23.8 324.97-0.9 327.72-0.9ZM345.42-22.4L345.42-22.4Q343.57-22.4 342.17-20 340.77-17.6 340.77-14.3L340.77-14.3 340.77-0.9 344.32-0.9 344.32 0 328.72 0 328.72-0.9 331.47-0.9 331.47-22.9 328.72-22.9 328.72-23.8 340.77-23.8 340.77-19Q341.42-21.55 343.27-22.93 345.12-24.3 347.47-24.3 349.82-24.3 351.29-22.98 352.77-21.65 352.77-19.23 352.77-16.8 351.67-15.5 350.57-14.2 348.29-14.2 346.02-14.2 344.94-15.7 343.87-17.2 344.67-19.85L344.67-19.85 346.47-19.85Q347.72-22.4 345.42-22.4ZM353.57-22.9L353.57-23.8 365.62-23.8 365.62-19.2Q366.42-21.5 368.07-22.9 369.72-24.3 373.07-24.3L373.07-24.3Q380.82-24.3 380.82-15.95L380.82-15.95 380.82-0.9 383.62-0.9 383.62 0 369.47 0 369.47-0.9 371.52-0.9 371.52-17.15Q371.52-20.15 371.12-21.03 370.72-21.9 369.67-21.9L369.67-21.9Q368.07-21.9 366.84-19.8 365.62-17.7 365.62-14.7L365.62-14.7 365.62-0.9 367.77-0.9 367.77 0 353.57 0 353.57-0.9 356.32-0.9 356.32-22.9 353.57-22.9ZM397.41 0.5Q390.96 0.5 387.74-2.83 384.51-6.15 384.51-12.08 384.51-18 388.14-21.15 391.76-24.3 397.36-24.3L397.36-24.3Q408.71-24.3 408.26-12.9L408.26-12.9 394.16-12.9 394.16-10.95Q394.16-6.05 395.41-3.55 396.66-1.05 399.76-1.05L399.76-1.05Q405.56-1.05 407.36-7.25L407.36-7.25 408.26-7.1Q407.31-3.5 404.84-1.5 402.36 0.5 397.41 0.5L397.41 0.5ZM394.21-16.35L394.21-13.9 399.36-13.9 399.36-16.35Q399.36-20.4 398.89-21.88 398.41-23.35 396.99-23.35 395.56-23.35 394.89-21.78 394.21-20.2 394.21-16.35L394.21-16.35ZM410.61-22.9L408.56-22.9 408.56-23.8 423.06-23.8 423.06-22.9 420.36-22.9 425.81-6.3 431.61-22.9 428.26-22.9 428.26-23.8 435.31-23.8 435.31-22.9 432.81-22.9 423.46 4.05Q421.81 8.75 419.76 10.63 417.71 12.5 414.76 12.5 411.81 12.5 410.11 11.15 408.41 9.8 408.41 7.7 408.41 5.6 409.51 4.5 410.61 3.4 412.41 3.4L412.41 3.4Q416.56 3.4 416.56 6.85L416.56 6.85Q416.56 7.6 416.26 8.65L416.26 8.65 414.51 8.65Q414.11 9.8 414.41 10.55 414.71 11.3 415.76 11.3L415.76 11.3Q417.81 11.3 419.41 9.28 421.01 7.25 422.46 3.1L422.46 3.1 423.56 0 419.16 0 410.61-22.9ZM446.91-7.15L446.91-7.15 446.91-22.9 444.16-22.9 444.16-23.8 446.91-23.8 446.91-30.25 456.21-32.55 456.21-23.8 462.71-23.8 462.71-22.9 456.21-22.9 456.21-6.05Q456.21-3.7 456.68-2.6 457.16-1.5 458.66-1.5 460.16-1.5 461.28-3 462.41-4.5 462.76-7.1L462.76-7.1 463.61-7Q463.21-3.55 461.41-1.53 459.61 0.5 455.46 0.5 451.31 0.5 449.11-1.15 446.91-2.8 446.91-7.15ZM480.25-9.85L480.25-9.85 480.25-14.1Q480.25-18.95 479.73-21.18 479.2-23.4 477.3-23.4L477.3-23.4Q476.2-23.4 475.53-22.78 474.85-22.15 474.55-20.7L474.55-20.7Q474.1-18.45 474.1-13.85L474.1-13.85 474.1-9.95Q474.1-4.5 474.43-3.4 474.75-2.3 475.1-1.6L475.1-1.6Q475.65-0.4 477.25-0.4L477.25-0.4Q479.2-0.4 479.8-2.65L479.8-2.65Q480.25-4.25 480.25-9.85ZM477.15 0.5Q470.9 0.5 467.7-2.7 464.5-5.9 464.5-11.88 464.5-17.85 467.93-21.08 471.35-24.3 477.55-24.3 483.75-24.3 486.8-21.33 489.85-18.35 489.85-12.25L489.85-12.25Q489.85 0.5 477.15 0.5L477.15 0.5ZM501-34.05L501-35 516.25-35 516.25-34.05 513.5-34.05 513.5-0.95 516.25-0.95 516.25 0 501 0 501-0.95 503.75-0.95 503.75-34.05 501-34.05ZM518-22.9L518-23.8 530.04-23.8 530.04-19.2Q531.7-24.3 537.32-24.3 542.95-24.3 544.14-18.9L544.14-18.9Q545.89-24.3 551.5-24.3L551.5-24.3Q558.85-24.3 558.85-15.95L558.85-15.95 558.85-0.9 561.64-0.9 561.64 0 547.79 0 547.79-0.9 549.54-0.9 549.54-17.15Q549.54-20.95 548.89-21.6L548.89-21.6Q548.6-21.9 548.1-21.9L548.1-21.9Q546.64-21.9 545.54-19.95 544.45-18 544.45-15L544.45-15 544.45-0.9 546.25-0.9 546.25 0 533.39 0 533.39-0.9 535.14-0.9 535.14-17.15Q535.14-20.95 534.5-21.6L534.5-21.6Q534.2-21.9 533.7-21.9L533.7-21.9Q532.29-21.9 531.17-19.78 530.04-17.65 530.04-14.7L530.04-14.7 530.04-0.9 531.85-0.9 531.85 0 518 0 518-0.9 520.75-0.9 520.75-22.9 518-22.9ZM574.39-11.75L574.39-11.75 575.84-11.75 575.84-15.6Q575.84-20.35 575.32-21.98 574.79-23.6 573.29-23.6L573.29-23.6Q572.39-23.6 571.67-23.13 570.94-22.65 570.94-21.83 570.94-21 571.24-20.15L571.24-20.15 572.49-20.15Q572.89-19.1 572.89-17.63 572.89-16.15 571.64-15.08 570.39-14 568.49-14L568.49-14Q564.19-14 564.19-18.15L564.19-18.15Q564.19-24.3 574.64-24.3L574.64-24.3Q580.59-24.3 582.87-22.28 585.14-20.25 585.14-14.85L585.14-14.85 585.14-4.7Q585.14-2.1 586.59-2.1L586.59-2.1Q588.29-2.1 588.59-7.25L588.59-7.25 589.34-7.2Q589.14-2.8 587.69-1.15 586.24 0.5 582.94 0.5L582.94 0.5Q576.94 0.5 576.04-3.2L576.04-3.2Q575.39-1.3 574.09-0.4 572.79 0.5 570.29 0.5L570.29 0.5Q562.89 0.5 562.89-5.55L562.89-5.55Q562.89-9.1 565.72-10.43 568.54-11.75 574.39-11.75ZM572.39-5.6Q572.39-3 572.67-2.25 572.94-1.5 573.72-1.5 574.49-1.5 575.17-2.78 575.84-4.05 575.84-6.3L575.84-6.3 575.84-10.95 575.49-10.95Q572.39-10.95 572.39-6.4L572.39-6.4 572.39-5.6ZM609.64-26.4L609.64-26.4 611.04-27.25Q611.34-28.8 609.84-28.8L609.84-28.8Q607.69-28.8 607.69-25.5L607.69-25.5Q607.69-24.2 608.04-22.5L608.04-22.5Q611.84-19.95 611.84-15.98 611.84-12 609.09-9.8 606.34-7.6 601.64-7.6L601.64-7.6Q599.69-7.6 597.59-8L597.59-8Q595.39-6.6 595.39-5.9 595.39-5.2 598.59-5.2L598.59-5.2 603.69-5.2Q615.04-5.2 615.04 2.95L615.04 2.95Q615.04 7.35 611.61 9.93 608.19 12.5 600.94 12.5L600.94 12.5Q588.59 12.5 588.59 7.15L588.59 7.15Q588.59 4.25 592.44 3.15L592.44 3.15 595.44 4.5Q595.04 5.95 595.04 7.25L595.04 7.25Q595.04 11.55 601.44 11.55L601.44 11.55Q605.34 11.55 607.44 10.1 609.54 8.65 609.54 6.5 609.54 4.35 608.26 3.63 606.99 2.9 603.19 2.9L603.19 2.9 598.34 2.9Q594.29 2.9 592.54 1.55 590.79 0.2 590.79-1.78 590.79-3.75 592.04-5.08 593.29-6.4 596.49-8.35L596.49-8.35Q590.69-10 590.69-15.95L590.69-15.95Q590.69-19.7 593.39-22 596.09-24.3 601.49-24.3L601.49-24.3Q604.74-24.3 607.04-23.05L607.04-23.05Q606.74-24.4 606.74-25.5L606.74-25.5Q606.74-28.3 608.24-29.55 609.74-30.8 611.59-30.8 613.44-30.8 614.56-29.83 615.69-28.85 615.69-27.15 615.69-25.45 614.79-24.63 613.89-23.8 612.61-23.8 611.34-23.8 610.51-24.48 609.69-25.15 609.64-26.4ZM599.04-17.05L599.04-17.05 599.04-14.35Q599.04-11 599.61-9.8 600.19-8.6 601.36-8.6 602.54-8.6 603.06-9.78 603.59-10.95 603.59-14.6L603.59-14.6 603.59-17.05Q603.59-20.95 603.09-22.18 602.59-23.4 601.41-23.4 600.24-23.4 599.64-22.13 599.04-20.85 599.04-17.05ZM623.04-27.25Q620.39-27.25 619.26-28.6 618.14-29.95 618.14-31.95 618.14-33.95 619.36-35.25 620.59-36.55 623.09-36.55 625.59-36.55 626.89-35.38 628.19-34.2 628.19-32.02 628.19-29.85 626.94-28.55 625.69-27.25 623.04-27.25ZM615.49-22.9L615.49-23.8 627.74-23.8 627.74-0.9 630.54-0.9 630.54 0 615.69 0 615.69-0.9 618.44-0.9 618.44-22.9 615.49-22.9ZM631.63-22.9L631.63-23.8 643.68-23.8 643.68-19.2Q644.48-21.5 646.13-22.9 647.78-24.3 651.13-24.3L651.13-24.3Q658.88-24.3 658.88-15.95L658.88-15.95 658.88-0.9 661.68-0.9 661.68 0 647.53 0 647.53-0.9 649.58-0.9 649.58-17.15Q649.58-20.15 649.18-21.03 648.78-21.9 647.73-21.9L647.73-21.9Q646.13-21.9 644.91-19.8 643.68-17.7 643.68-14.7L643.68-14.7 643.68-0.9 645.83-0.9 645.83 0 631.63 0 631.63-0.9 634.38-0.9 634.38-22.9 631.63-22.9ZM674.33-11.75L674.33-11.75 675.78-11.75 675.78-15.6Q675.78-20.35 675.26-21.98 674.73-23.6 673.23-23.6L673.23-23.6Q672.33-23.6 671.61-23.13 670.88-22.65 670.88-21.83 670.88-21 671.18-20.15L671.18-20.15 672.43-20.15Q672.83-19.1 672.83-17.63 672.83-16.15 671.58-15.08 670.33-14 668.43-14L668.43-14Q664.13-14 664.13-18.15L664.13-18.15Q664.13-24.3 674.58-24.3L674.58-24.3Q680.53-24.3 682.81-22.28 685.08-20.25 685.08-14.85L685.08-14.85 685.08-4.7Q685.08-2.1 686.53-2.1L686.53-2.1Q688.23-2.1 688.53-7.25L688.53-7.25 689.28-7.2Q689.08-2.8 687.63-1.15 686.18 0.5 682.88 0.5L682.88 0.5Q676.88 0.5 675.98-3.2L675.98-3.2Q675.33-1.3 674.03-0.4 672.73 0.5 670.23 0.5L670.23 0.5Q662.83 0.5 662.83-5.55L662.83-5.55Q662.83-9.1 665.66-10.43 668.48-11.75 674.33-11.75ZM672.33-5.6Q672.33-3 672.61-2.25 672.88-1.5 673.66-1.5 674.43-1.5 675.11-2.78 675.78-4.05 675.78-6.3L675.78-6.3 675.78-10.95 675.43-10.95Q672.33-10.95 672.33-6.4L672.33-6.4 672.33-5.6ZM691.53-7.15L691.53-7.15 691.53-22.9 688.78-22.9 688.78-23.8 691.53-23.8 691.53-30.25 700.83-32.55 700.83-23.8 707.33-23.8 707.33-22.9 700.83-22.9 700.83-6.05Q700.83-3.7 701.3-2.6 701.78-1.5 703.28-1.5 704.78-1.5 705.9-3 707.03-4.5 707.38-7.1L707.38-7.1 708.23-7Q707.83-3.55 706.03-1.53 704.23 0.5 700.08 0.5 695.93 0.5 693.73-1.15 691.53-2.8 691.53-7.15ZM716.08-27.25Q713.43-27.25 712.3-28.6 711.18-29.95 711.18-31.95 711.18-33.95 712.4-35.25 713.63-36.55 716.13-36.55 718.63-36.55 719.93-35.38 721.23-34.2 721.23-32.02 721.23-29.85 719.98-28.55 718.73-27.25 716.08-27.25ZM708.53-22.9L708.53-23.8 720.78-23.8 720.78-0.9 723.58-0.9 723.58 0 708.73 0 708.73-0.9 711.48-0.9 711.48-22.9 708.53-22.9ZM740.72-9.85L740.72-9.85 740.72-14.1Q740.72-18.95 740.2-21.18 739.67-23.4 737.77-23.4L737.77-23.4Q736.67-23.4 736-22.78 735.32-22.15 735.02-20.7L735.02-20.7Q734.57-18.45 734.57-13.85L734.57-13.85 734.57-9.95Q734.57-4.5 734.9-3.4 735.22-2.3 735.57-1.6L735.57-1.6Q736.12-0.4 737.72-0.4L737.72-0.4Q739.67-0.4 740.27-2.65L740.27-2.65Q740.72-4.25 740.72-9.85ZM737.62 0.5Q731.37 0.5 728.17-2.7 724.97-5.9 724.97-11.88 724.97-17.85 728.4-21.08 731.82-24.3 738.02-24.3 744.22-24.3 747.27-21.33 750.32-18.35 750.32-12.25L750.32-12.25Q750.32 0.5 737.62 0.5L737.62 0.5ZM751.82-22.9L751.82-23.8 763.87-23.8 763.87-19.2Q764.67-21.5 766.32-22.9 767.97-24.3 771.32-24.3L771.32-24.3Q779.07-24.3 779.07-15.95L779.07-15.95 779.07-0.9 781.87-0.9 781.87 0 767.72 0 767.72-0.9 769.77-0.9 769.77-17.15Q769.77-20.15 769.37-21.03 768.97-21.9 767.92-21.9L767.92-21.9Q766.32-21.9 765.1-19.8 763.87-17.7 763.87-14.7L763.87-14.7 763.87-0.9 766.02-0.9 766.02 0 751.82 0 751.82-0.9 754.57-0.9 754.57-22.9 751.82-22.9ZM788.59 0.5Q786.42 0.5 785.34-0.78 784.27-2.05 784.27-3.88 784.27-5.7 785.39-6.95 786.52-8.2 788.57-8.2 790.62-8.2 791.82-7.15 793.02-6.1 793.02-4 793.02-1.9 791.89-0.7 790.77 0.5 788.59 0.5Z" opacity="1" transform="matrix(1,0,0,1,0,0)" fill="#8a2851" class="slogan-text-1" data-fill-palette-color="secondary" id="text-1"></path></svg></g></svg></g></svg></g></svg></g><g><svg viewBox="0 0 104.74977427863145 104.74977427863145" height="104.74977427863145" width="104.74977427863145"><g><svg></svg></g><g id="icon-0"><svg viewBox="0 0 104.74977427863145 104.74977427863145" height="104.74977427863145" width="104.74977427863145"><g><path d="M0 52.375c0-28.926 23.449-52.375 52.375-52.375 28.926 0 52.375 23.449 52.375 52.375 0 28.926-23.449 52.375-52.375 52.375-28.926 0-52.375-23.449-52.375-52.375zM52.375 99.948c26.274 0 47.573-21.299 47.573-47.573 0-26.274-21.299-47.573-47.573-47.574-26.274 0-47.573 21.299-47.574 47.574 0 26.274 21.299 47.573 47.574 47.573z" data-fill-palette-color="tertiary" fill="#8a2851" stroke="transparent"></path></g><g transform="matrix(1,0,0,1,22.745602050442667,25.941786571265844)"><svg viewBox="0 0 59.258570177746115 52.86620113609976" height="52.86620113609976" width="59.258570177746115"><g><svg xmlns="http://www.w3.org/2000/svg" xmlns:xlink="http://www.w3.org/1999/xlink" version="1.1" x="0" y="0" viewBox="8.387 13.005 84.192 75.11" enable-background="new 0 0 100 100" xml:space="preserve" height="52.86620113609976" width="59.258570177746115" class="icon-dxe-0" data-fill-palette-color="accent" id="dxe-0"><g fill="#c7a2c3" data-fill-palette-color="accent"><path d="M49.569 22.967C39.594 17.276 28.892 13.842 18.524 13.005V71.356C28.891 72.17 39.574 75.51 49.569 81.055z" fill="#c7a2c3" data-fill-palette-color="accent"></path><path d="M82.444 13.005C72.076 13.843 61.373 17.276 51.399 22.967V81.054C61.392 75.509 72.078 72.169 82.444 71.355z" fill="#c7a2c3" data-fill-palette-color="accent"></path><path d="M49.229 84.073C50.043 84.351 50.9 84.363 51.714 84.085 63.371 79.042 75.579 76.772 87.512 77.295V19.524A67 67 0 0 0 84.272 19.469V73.063L83.42 73.119C72.748 73.816 61.688 77.296 51.399 83.167A2.83 2.83 0 0 1 49.569 83.167C39.279 77.296 28.22 73.816 17.548 73.119L16.694 73.063V19.469A66 66 0 0 0 13.455 19.524V77.295C25.387 76.771 37.569 79.03 49.229 84.073" fill="#c7a2c3" data-fill-palette-color="accent"></path><path d="M92.579 26.009C91.509 25.86 90.422 25.781 89.342 25.674V79.224L88.374 79.168C76.179 78.469 63.314 80.945 51.399 86.233L50.483 86.614 49.568 86.233C37.651 80.945 24.787 78.468 12.592 79.168L11.625 79.224V25.674C10.544 25.782 9.457 25.861 8.387 26.009V84.716A5 5 0 0 1 9.431 85.464C22.382 83.714 35.824 83.928 48.611 88.115A19 19 0 0 1 50.484 88.02C51.145 88.02 51.769 88.057 52.356 88.115 65.141 83.927 78.585 83.714 91.535 85.464 91.535 85.464 92.009 85.002 92.579 84.716z" fill="#c7a2c3" data-fill-palette-color="accent"></path></g></svg></g></svg></g></svg></g></svg></g></svg></g><defs></defs></svg><rect width="395.52" height="78.85415505282819" fill="none" stroke="none" visibility="hidden"></rect></g></svg></g></svg>